# QDGrasp Procedural Object Asset
# License: CC0-1.0
v 0.000000 0.000000 -0.030324
v 0.012320 0.000000 -0.030324
v 0.012320 0.000000 0.030324
v 0.000000 0.000000 0.030324
v 0.011900 0.003189 -0.030324
v 0.011900 0.003189 0.030324
v 0.010669 0.006160 -0.030324
v 0.010669 0.006160 0.030324
v 0.008711 0.008711 -0.030324
v 0.008711 0.008711 0.030324
v 0.006160 0.010669 -0.030324
v 0.006160 0.010669 0.030324
v 0.003189 0.011900 -0.030324
v 0.003189 0.011900 0.030324
v 0.000000 0.012320 -0.030324
v 0.000000 0.012320 0.030324
v -0.003189 0.011900 -0.030324
v -0.003189 0.011900 0.030324
v -0.006160 0.010669 -0.030324
v -0.006160 0.010669 0.030324
v -0.008711 0.008711 -0.030324
v -0.008711 0.008711 0.030324
v -0.010669 0.006160 -0.030324
v -0.010669 0.006160 0.030324
v -0.011900 0.003189 -0.030324
v -0.011900 0.003189 0.030324
v -0.012320 0.000000 -0.030324
v -0.012320 0.000000 0.030324
v -0.011900 -0.003189 -0.030324
v -0.011900 -0.003189 0.030324
v -0.010669 -0.006160 -0.030324
v -0.010669 -0.006160 0.030324
v -0.008711 -0.008711 -0.030324
v -0.008711 -0.008711 0.030324
v -0.006160 -0.010669 -0.030324
v -0.006160 -0.010669 0.030324
v -0.003189 -0.011900 -0.030324
v -0.003189 -0.011900 0.030324
v -0.000000 -0.012320 -0.030324
v -0.000000 -0.012320 0.030324
v 0.003189 -0.011900 -0.030324
v 0.003189 -0.011900 0.030324
v 0.006160 -0.010669 -0.030324
v 0.006160 -0.010669 0.030324
v 0.008711 -0.008711 -0.030324
v 0.008711 -0.008711 0.030324
v 0.010669 -0.006160 -0.030324
v 0.010669 -0.006160 0.030324
v 0.011900 -0.003189 -0.030324
v 0.011900 -0.003189 0.030324
v -0.009935 0.016076 0.030324
v 0.009935 0.016076 0.030324
v -0.009935 -0.016076 0.030324
v 0.009935 -0.016076 0.030324
v 0.000000 -0.009935 0.046400
v 0.000000 0.009935 0.046400
v 0.000000 -0.009935 0.014248
v 0.000000 0.009935 0.014248
v 0.016076 0.000000 0.020389
v 0.016076 0.000000 0.040260
v -0.016076 0.000000 0.020389
v -0.016076 0.000000 0.040260
v 0.000000 0.018898 0.030324
v 0.000000 -0.018898 0.030324
v -0.005840 -0.015289 0.039774
v 0.005840 -0.015289 0.039774
v -0.005840 0.015289 0.039774
v 0.005840 0.015289 0.039774
v 0.000000 0.000000 0.049223
v -0.005840 -0.015289 0.020875
v 0.005840 -0.015289 0.020875
v -0.005840 0.015289 0.020875
v 0.005840 0.015289 0.020875
v 0.000000 0.000000 0.011426
v 0.015289 0.009449 0.024485
v 0.015289 -0.009449 0.024485
v 0.009449 -0.005840 0.015035
v 0.009449 0.005840 0.015035
v 0.015289 0.009449 0.036164
v 0.015289 -0.009449 0.036164
v 0.009449 -0.005840 0.045614
v 0.009449 0.005840 0.045614
v 0.018898 0.000000 0.030324
v -0.015289 0.009449 0.024485
v -0.015289 -0.009449 0.024485
v -0.009449 -0.005840 0.015035
v -0.009449 0.005840 0.015035
v -0.015289 0.009449 0.036164
v -0.015289 -0.009449 0.036164
v -0.009449 -0.005840 0.045614
v -0.009449 0.005840 0.045614
v -0.018898 0.000000 0.030324
v -0.005164 0.018179 0.030324
v 0.005164 0.018179 0.030324
v -0.005164 -0.018179 0.030324
v 0.005164 -0.018179 0.030324
v -0.008200 -0.016303 0.035236
v -0.003036 -0.013111 0.043592
v -0.003070 -0.017973 0.035292
v 0.008200 -0.016303 0.035236
v 0.003036 -0.013111 0.043592
v 0.003070 -0.017973 0.035292
v 0.000000 -0.016076 0.040260
v -0.008200 0.016303 0.035236
v -0.003036 0.013111 0.043592
v -0.003070 0.017973 0.035292
v 0.008200 0.016303 0.035236
v 0.003036 0.013111 0.043592
v 0.003070 0.017973 0.035292
v 0.000000 0.016076 0.040260
v 0.000000 -0.005164 0.048504
v 0.000000 0.005164 0.048504
v -0.008200 -0.016303 0.025413
v -0.003036 -0.013111 0.017057
v -0.003070 -0.017973 0.025357
v 0.008200 -0.016303 0.025413
v 0.003036 -0.013111 0.017057
v 0.003070 -0.017973 0.025357
v 0.000000 -0.016076 0.020389
v -0.008200 0.016303 0.025413
v -0.003036 0.013111 0.017057
v -0.003070 0.017973 0.025357
v 0.008200 0.016303 0.025413
v 0.003036 0.013111 0.017057
v 0.003070 0.017973 0.025357
v 0.000000 0.016076 0.020389
v 0.000000 -0.005164 0.012145
v 0.000000 0.005164 0.012145
v 0.013111 0.013268 0.027289
v 0.016303 0.004912 0.022125
v 0.011108 0.013006 0.022286
v 0.013111 -0.013268 0.027289
v 0.016303 -0.004912 0.022125
v 0.011108 -0.013006 0.022286
v 0.004912 -0.008200 0.014021
v 0.013268 -0.003036 0.017213
v 0.008038 -0.011108 0.017319
v 0.004968 -0.003070 0.012351
v 0.013006 -0.008038 0.019216
v 0.004912 0.008200 0.014021
v 0.013268 0.003036 0.017213
v 0.008038 0.011108 0.017319
v 0.004968 0.003070 0.012351
v 0.013006 0.008038 0.019216
v 0.009935 0.000000 0.014248
v 0.013111 0.013268 0.033360
v 0.016303 0.004912 0.038524
v 0.011108 0.013006 0.038362
v 0.016076 0.009935 0.030324
v 0.013111 -0.013268 0.033360
v 0.016303 -0.004912 0.038524
v 0.011108 -0.013006 0.038362
v 0.016076 -0.009935 0.030324
v 0.004912 -0.008200 0.046628
v 0.013268 -0.003036 0.043436
v 0.008038 -0.011108 0.043330
v 0.004968 -0.003070 0.048298
v 0.013006 -0.008038 0.041433
v 0.004912 0.008200 0.046628
v 0.013268 0.003036 0.043436
v 0.008038 0.011108 0.043330
v 0.004968 0.003070 0.048298
v 0.013006 0.008038 0.041433
v 0.009935 0.000000 0.046400
v 0.018179 0.000000 0.025160
v 0.018179 0.000000 0.035489
v 0.017973 0.004968 0.027254
v 0.017973 -0.004968 0.027254
v 0.017973 0.004968 0.033395
v 0.017973 -0.004968 0.033395
v -0.013111 0.013268 0.027289
v -0.016303 0.004912 0.022125
v -0.011108 0.013006 0.022286
v -0.013111 -0.013268 0.027289
v -0.016303 -0.004912 0.022125
v -0.011108 -0.013006 0.022286
v -0.004912 -0.008200 0.014021
v -0.013268 -0.003036 0.017213
v -0.008038 -0.011108 0.017319
v -0.004968 -0.003070 0.012351
v -0.013006 -0.008038 0.019216
v -0.004912 0.008200 0.014021
v -0.013268 0.003036 0.017213
v -0.008038 0.011108 0.017319
v -0.004968 0.003070 0.012351
v -0.013006 0.008038 0.019216
v -0.009935 0.000000 0.014248
v -0.013111 0.013268 0.033360
v -0.016303 0.004912 0.038524
v -0.011108 0.013006 0.038362
v -0.016076 0.009935 0.030324
v -0.013111 -0.013268 0.033360
v -0.016303 -0.004912 0.038524
v -0.011108 -0.013006 0.038362
v -0.016076 -0.009935 0.030324
v -0.004912 -0.008200 0.046628
v -0.013268 -0.003036 0.043436
v -0.008038 -0.011108 0.043330
v -0.004968 -0.003070 0.048298
v -0.013006 -0.008038 0.041433
v -0.004912 0.008200 0.046628
v -0.013268 0.003036 0.043436
v -0.008038 0.011108 0.043330
v -0.004968 0.003070 0.048298
v -0.013006 0.008038 0.041433
v -0.009935 0.000000 0.046400
v -0.018179 0.000000 0.025160
v -0.018179 0.000000 0.035489
v -0.017973 0.004968 0.027254
v -0.017973 -0.004968 0.027254
v -0.017973 0.004968 0.033395
v -0.017973 -0.004968 0.033395
v -0.009935 0.016076 -0.030324
v 0.009935 0.016076 -0.030324
v -0.009935 -0.016076 -0.030324
v 0.009935 -0.016076 -0.030324
v 0.000000 -0.009935 -0.014248
v 0.000000 0.009935 -0.014248
v 0.000000 -0.009935 -0.046400
v 0.000000 0.009935 -0.046400
v 0.016076 0.000000 -0.040260
v 0.016076 0.000000 -0.020389
v -0.016076 0.000000 -0.040260
v -0.016076 0.000000 -0.020389
v 0.000000 0.018898 -0.030324
v 0.000000 -0.018898 -0.030324
v -0.005840 -0.015289 -0.020875
v 0.005840 -0.015289 -0.020875
v -0.005840 0.015289 -0.020875
v 0.005840 0.015289 -0.020875
v 0.000000 0.000000 -0.011426
v -0.005840 -0.015289 -0.039774
v 0.005840 -0.015289 -0.039774
v -0.005840 0.015289 -0.039774
v 0.005840 0.015289 -0.039774
v 0.000000 0.000000 -0.049223
v 0.015289 0.009449 -0.036164
v 0.015289 -0.009449 -0.036164
v 0.009449 -0.005840 -0.045614
v 0.009449 0.005840 -0.045614
v 0.015289 0.009449 -0.024485
v 0.015289 -0.009449 -0.024485
v 0.009449 -0.005840 -0.015035
v 0.009449 0.005840 -0.015035
v 0.018898 0.000000 -0.030324
v -0.015289 0.009449 -0.036164
v -0.015289 -0.009449 -0.036164
v -0.009449 -0.005840 -0.045614
v -0.009449 0.005840 -0.045614
v -0.015289 0.009449 -0.024485
v -0.015289 -0.009449 -0.024485
v -0.009449 -0.005840 -0.015035
v -0.009449 0.005840 -0.015035
v -0.018898 0.000000 -0.030324
v -0.005164 0.018179 -0.030324
v 0.005164 0.018179 -0.030324
v -0.005164 -0.018179 -0.030324
v 0.005164 -0.018179 -0.030324
v -0.008200 -0.016303 -0.025413
v -0.003036 -0.013111 -0.017057
v -0.003070 -0.017973 -0.025357
v 0.008200 -0.016303 -0.025413
v 0.003036 -0.013111 -0.017057
v 0.003070 -0.017973 -0.025357
v 0.000000 -0.016076 -0.020389
v -0.008200 0.016303 -0.025413
v -0.003036 0.013111 -0.017057
v -0.003070 0.017973 -0.025357
v 0.008200 0.016303 -0.025413
v 0.003036 0.013111 -0.017057
v 0.003070 0.017973 -0.025357
v 0.000000 0.016076 -0.020389
v 0.000000 -0.005164 -0.012145
v 0.000000 0.005164 -0.012145
v -0.008200 -0.016303 -0.035236
v -0.003036 -0.013111 -0.043592
v -0.003070 -0.017973 -0.035292
v 0.008200 -0.016303 -0.035236
v 0.003036 -0.013111 -0.043592
v 0.003070 -0.017973 -0.035292
v 0.000000 -0.016076 -0.040260
v -0.008200 0.016303 -0.035236
v -0.003036 0.013111 -0.043592
v -0.003070 0.017973 -0.035292
v 0.008200 0.016303 -0.035236
v 0.003036 0.013111 -0.043592
v 0.003070 0.017973 -0.035292
v 0.000000 0.016076 -0.040260
v 0.000000 -0.005164 -0.048504
v 0.000000 0.005164 -0.048504
v 0.013111 0.013268 -0.033360
v 0.016303 0.004912 -0.038524
v 0.011108 0.013006 -0.038362
v 0.013111 -0.013268 -0.033360
v 0.016303 -0.004912 -0.038524
v 0.011108 -0.013006 -0.038362
v 0.004912 -0.008200 -0.046628
v 0.013268 -0.003036 -0.043436
v 0.008038 -0.011108 -0.043330
v 0.004968 -0.003070 -0.048298
v 0.013006 -0.008038 -0.041433
v 0.004912 0.008200 -0.046628
v 0.013268 0.003036 -0.043436
v 0.008038 0.011108 -0.043330
v 0.004968 0.003070 -0.048298
v 0.013006 0.008038 -0.041433
v 0.009935 0.000000 -0.046400
v 0.013111 0.013268 -0.027289
v 0.016303 0.004912 -0.022125
v 0.011108 0.013006 -0.022286
v 0.016076 0.009935 -0.030324
v 0.013111 -0.013268 -0.027289
v 0.016303 -0.004912 -0.022125
v 0.011108 -0.013006 -0.022286
v 0.016076 -0.009935 -0.030324
v 0.004912 -0.008200 -0.014021
v 0.013268 -0.003036 -0.017213
v 0.008038 -0.011108 -0.017319
v 0.004968 -0.003070 -0.012351
v 0.013006 -0.008038 -0.019216
v 0.004912 0.008200 -0.014021
v 0.013268 0.003036 -0.017213
v 0.008038 0.011108 -0.017319
v 0.004968 0.003070 -0.012351
v 0.013006 0.008038 -0.019216
v 0.009935 0.000000 -0.014248
v 0.018179 0.000000 -0.035489
v 0.018179 0.000000 -0.025160
v 0.017973 0.004968 -0.033395
v 0.017973 -0.004968 -0.033395
v 0.017973 0.004968 -0.027254
v 0.017973 -0.004968 -0.027254
v -0.013111 0.013268 -0.033360
v -0.016303 0.004912 -0.038524
v -0.011108 0.013006 -0.038362
v -0.013111 -0.013268 -0.033360
v -0.016303 -0.004912 -0.038524
v -0.011108 -0.013006 -0.038362
v -0.004912 -0.008200 -0.046628
v -0.013268 -0.003036 -0.043436
v -0.008038 -0.011108 -0.043330
v -0.004968 -0.003070 -0.048298
v -0.013006 -0.008038 -0.041433
v -0.004912 0.008200 -0.046628
v -0.013268 0.003036 -0.043436
v -0.008038 0.011108 -0.043330
v -0.004968 0.003070 -0.048298
v -0.013006 0.008038 -0.041433
v -0.009935 0.000000 -0.046400
v -0.013111 0.013268 -0.027289
v -0.016303 0.004912 -0.022125
v -0.011108 0.013006 -0.022286
v -0.016076 0.009935 -0.030324
v -0.013111 -0.013268 -0.027289
v -0.016303 -0.004912 -0.022125
v -0.011108 -0.013006 -0.022286
v -0.016076 -0.009935 -0.030324
v -0.004912 -0.008200 -0.014021
v -0.013268 -0.003036 -0.017213
v -0.008038 -0.011108 -0.017319
v -0.004968 -0.003070 -0.012351
v -0.013006 -0.008038 -0.019216
v -0.004912 0.008200 -0.014021
v -0.013268 0.003036 -0.017213
v -0.008038 0.011108 -0.017319
v -0.004968 0.003070 -0.012351
v -0.013006 0.008038 -0.019216
v -0.009935 0.000000 -0.014248
v -0.018179 0.000000 -0.035489
v -0.018179 0.000000 -0.025160
v -0.017973 0.004968 -0.033395
v -0.017973 -0.004968 -0.033395
v -0.017973 0.004968 -0.027254
v -0.017973 -0.004968 -0.027254
f 2 1 5
f 2 5 3
f 3 5 6
f 3 6 4
f 5 1 7
f 5 7 6
f 6 7 8
f 6 8 4
f 7 1 9
f 7 9 8
f 8 9 10
f 8 10 4
f 9 1 11
f 9 11 10
f 10 11 12
f 10 12 4
f 11 1 13
f 11 13 12
f 12 13 14
f 12 14 4
f 13 1 15
f 13 15 14
f 14 15 16
f 14 16 4
f 15 1 17
f 15 17 16
f 16 17 18
f 16 18 4
f 17 1 19
f 17 19 18
f 18 19 20
f 18 20 4
f 19 1 21
f 19 21 20
f 20 21 22
f 20 22 4
f 21 1 23
f 21 23 22
f 22 23 24
f 22 24 4
f 23 1 25
f 23 25 24
f 24 25 26
f 24 26 4
f 25 1 27
f 25 27 26
f 26 27 28
f 26 28 4
f 27 1 29
f 27 29 28
f 28 29 30
f 28 30 4
f 29 1 31
f 29 31 30
f 30 31 32
f 30 32 4
f 31 1 33
f 31 33 32
f 32 33 34
f 32 34 4
f 33 1 35
f 33 35 34
f 34 35 36
f 34 36 4
f 35 1 37
f 35 37 36
f 36 37 38
f 36 38 4
f 37 1 39
f 37 39 38
f 38 39 40
f 38 40 4
f 39 1 41
f 39 41 40
f 40 41 42
f 40 42 4
f 41 1 43
f 41 43 42
f 42 43 44
f 42 44 4
f 43 1 45
f 43 45 44
f 44 45 46
f 44 46 4
f 45 1 47
f 45 47 46
f 46 47 48
f 46 48 4
f 47 1 49
f 47 49 48
f 48 49 50
f 48 50 4
f 49 1 2
f 49 2 50
f 50 2 3
f 50 3 4
f 51 188 104
f 188 88 190
f 104 190 67
f 188 190 104
f 88 189 205
f 189 62 202
f 205 202 91
f 189 202 205
f 67 203 105
f 203 91 201
f 105 201 56
f 203 201 105
f 88 205 190
f 205 91 203
f 190 203 67
f 205 203 190
f 51 104 93
f 104 67 106
f 93 106 63
f 104 106 93
f 67 105 110
f 105 56 108
f 110 108 68
f 105 108 110
f 63 109 94
f 109 68 107
f 94 107 52
f 109 107 94
f 67 110 106
f 110 68 109
f 106 109 63
f 110 109 106
f 51 93 120
f 93 63 122
f 120 122 72
f 93 122 120
f 63 94 125
f 94 52 123
f 125 123 73
f 94 123 125
f 72 126 121
f 126 73 124
f 121 124 58
f 126 124 121
f 63 125 122
f 125 73 126
f 122 126 72
f 125 126 122
f 51 120 171
f 120 72 173
f 171 173 84
f 120 173 171
f 72 121 184
f 121 58 182
f 184 182 87
f 121 182 184
f 84 186 172
f 186 87 183
f 172 183 61
f 186 183 172
f 72 184 173
f 184 87 186
f 173 186 84
f 184 186 173
f 51 171 188
f 171 84 191
f 188 191 88
f 171 191 188
f 84 172 209
f 172 61 207
f 209 207 92
f 172 207 209
f 88 211 189
f 211 92 208
f 189 208 62
f 211 208 189
f 84 209 191
f 209 92 211
f 191 211 88
f 209 211 191
f 52 107 146
f 107 68 148
f 146 148 79
f 107 148 146
f 68 108 161
f 108 56 159
f 161 159 82
f 108 159 161
f 79 163 147
f 163 82 160
f 147 160 60
f 163 160 147
f 68 161 148
f 161 82 163
f 148 163 79
f 161 163 148
f 56 201 112
f 201 91 204
f 112 204 69
f 201 204 112
f 91 202 206
f 202 62 197
f 206 197 90
f 202 197 206
f 69 199 111
f 199 90 196
f 111 196 55
f 199 196 111
f 91 206 204
f 206 90 199
f 204 199 69
f 206 199 204
f 62 208 193
f 208 92 212
f 193 212 89
f 208 212 193
f 92 207 210
f 207 61 175
f 210 175 85
f 207 175 210
f 89 195 192
f 195 85 174
f 192 174 53
f 195 174 192
f 92 210 212
f 210 85 195
f 212 195 89
f 210 195 212
f 61 183 178
f 183 87 187
f 178 187 86
f 183 187 178
f 87 182 185
f 182 58 128
f 185 128 74
f 182 128 185
f 86 180 177
f 180 74 127
f 177 127 57
f 180 127 177
f 87 185 187
f 185 74 180
f 187 180 86
f 185 180 187
f 58 124 140
f 124 73 142
f 140 142 78
f 124 142 140
f 73 123 131
f 123 52 129
f 131 129 75
f 123 129 131
f 78 144 141
f 144 75 130
f 141 130 59
f 144 130 141
f 73 131 142
f 131 75 144
f 142 144 78
f 131 144 142
f 54 150 100
f 150 80 152
f 100 152 66
f 150 152 100
f 80 151 158
f 151 60 155
f 158 155 81
f 151 155 158
f 66 156 101
f 156 81 154
f 101 154 55
f 156 154 101
f 80 158 152
f 158 81 156
f 152 156 66
f 158 156 152
f 54 100 96
f 100 66 102
f 96 102 64
f 100 102 96
f 66 101 103
f 101 55 98
f 103 98 65
f 101 98 103
f 64 99 95
f 99 65 97
f 95 97 53
f 99 97 95
f 66 103 102
f 103 65 99
f 102 99 64
f 103 99 102
f 54 96 116
f 96 64 118
f 116 118 71
f 96 118 116
f 64 95 115
f 95 53 113
f 115 113 70
f 95 113 115
f 71 119 117
f 119 70 114
f 117 114 57
f 119 114 117
f 64 115 118
f 115 70 119
f 118 119 71
f 115 119 118
f 54 116 132
f 116 71 134
f 132 134 76
f 116 134 132
f 71 117 137
f 117 57 135
f 137 135 77
f 117 135 137
f 76 139 133
f 139 77 136
f 133 136 59
f 139 136 133
f 71 137 134
f 137 77 139
f 134 139 76
f 137 139 134
f 54 132 150
f 132 76 153
f 150 153 80
f 132 153 150
f 76 133 168
f 133 59 165
f 168 165 83
f 133 165 168
f 80 170 151
f 170 83 166
f 151 166 60
f 170 166 151
f 76 168 153
f 168 83 170
f 153 170 80
f 168 170 153
f 55 154 111
f 154 81 157
f 111 157 69
f 154 157 111
f 81 155 164
f 155 60 160
f 164 160 82
f 155 160 164
f 69 162 112
f 162 82 159
f 112 159 56
f 162 159 112
f 81 164 157
f 164 82 162
f 157 162 69
f 164 162 157
f 53 97 192
f 97 65 194
f 192 194 89
f 97 194 192
f 65 98 198
f 98 55 196
f 198 196 90
f 98 196 198
f 89 200 193
f 200 90 197
f 193 197 62
f 200 197 193
f 65 198 194
f 198 90 200
f 194 200 89
f 198 200 194
f 57 114 177
f 114 70 179
f 177 179 86
f 114 179 177
f 70 113 176
f 113 53 174
f 176 174 85
f 113 174 176
f 86 181 178
f 181 85 175
f 178 175 61
f 181 175 178
f 70 176 179
f 176 85 181
f 179 181 86
f 176 181 179
f 59 136 141
f 136 77 145
f 141 145 78
f 136 145 141
f 77 135 138
f 135 57 127
f 138 127 74
f 135 127 138
f 78 143 140
f 143 74 128
f 140 128 58
f 143 128 140
f 77 138 145
f 138 74 143
f 145 143 78
f 138 143 145
f 60 166 147
f 166 83 169
f 147 169 79
f 166 169 147
f 83 165 167
f 165 59 130
f 167 130 75
f 165 130 167
f 79 149 146
f 149 75 129
f 146 129 52
f 149 129 146
f 83 167 169
f 167 75 149
f 169 149 79
f 167 149 169
f 213 350 266
f 350 250 352
f 266 352 229
f 350 352 266
f 250 351 367
f 351 224 364
f 367 364 253
f 351 364 367
f 229 365 267
f 365 253 363
f 267 363 218
f 365 363 267
f 250 367 352
f 367 253 365
f 352 365 229
f 367 365 352
f 213 266 255
f 266 229 268
f 255 268 225
f 266 268 255
f 229 267 272
f 267 218 270
f 272 270 230
f 267 270 272
f 225 271 256
f 271 230 269
f 256 269 214
f 271 269 256
f 229 272 268
f 272 230 271
f 268 271 225
f 272 271 268
f 213 255 282
f 255 225 284
f 282 284 234
f 255 284 282
f 225 256 287
f 256 214 285
f 287 285 235
f 256 285 287
f 234 288 283
f 288 235 286
f 283 286 220
f 288 286 283
f 225 287 284
f 287 235 288
f 284 288 234
f 287 288 284
f 213 282 333
f 282 234 335
f 333 335 246
f 282 335 333
f 234 283 346
f 283 220 344
f 346 344 249
f 283 344 346
f 246 348 334
f 348 249 345
f 334 345 223
f 348 345 334
f 234 346 335
f 346 249 348
f 335 348 246
f 346 348 335
f 213 333 350
f 333 246 353
f 350 353 250
f 333 353 350
f 246 334 371
f 334 223 369
f 371 369 254
f 334 369 371
f 250 373 351
f 373 254 370
f 351 370 224
f 373 370 351
f 246 371 353
f 371 254 373
f 353 373 250
f 371 373 353
f 214 269 308
f 269 230 310
f 308 310 241
f 269 310 308
f 230 270 323
f 270 218 321
f 323 321 244
f 270 321 323
f 241 325 309
f 325 244 322
f 309 322 222
f 325 322 309
f 230 323 310
f 323 244 325
f 310 325 241
f 323 325 310
f 218 363 274
f 363 253 366
f 274 366 231
f 363 366 274
f 253 364 368
f 364 224 359
f 368 359 252
f 364 359 368
f 231 361 273
f 361 252 358
f 273 358 217
f 361 358 273
f 253 368 366
f 368 252 361
f 366 361 231
f 368 361 366
f 224 370 355
f 370 254 374
f 355 374 251
f 370 374 355
f 254 369 372
f 369 223 337
f 372 337 247
f 369 337 372
f 251 357 354
f 357 247 336
f 354 336 215
f 357 336 354
f 254 372 374
f 372 247 357
f 374 357 251
f 372 357 374
f 223 345 340
f 345 249 349
f 340 349 248
f 345 349 340
f 249 344 347
f 344 220 290
f 347 290 236
f 344 290 347
f 248 342 339
f 342 236 289
f 339 289 219
f 342 289 339
f 249 347 349
f 347 236 342
f 349 342 248
f 347 342 349
f 220 286 302
f 286 235 304
f 302 304 240
f 286 304 302
f 235 285 293
f 285 214 291
f 293 291 237
f 285 291 293
f 240 306 303
f 306 237 292
f 303 292 221
f 306 292 303
f 235 293 304
f 293 237 306
f 304 306 240
f 293 306 304
f 216 312 262
f 312 242 314
f 262 314 228
f 312 314 262
f 242 313 320
f 313 222 317
f 320 317 243
f 313 317 320
f 228 318 263
f 318 243 316
f 263 316 217
f 318 316 263
f 242 320 314
f 320 243 318
f 314 318 228
f 320 318 314
f 216 262 258
f 262 228 264
f 258 264 226
f 262 264 258
f 228 263 265
f 263 217 260
f 265 260 227
f 263 260 265
f 226 261 257
f 261 227 259
f 257 259 215
f 261 259 257
f 228 265 264
f 265 227 261
f 264 261 226
f 265 261 264
f 216 258 278
f 258 226 280
f 278 280 233
f 258 280 278
f 226 257 277
f 257 215 275
f 277 275 232
f 257 275 277
f 233 281 279
f 281 232 276
f 279 276 219
f 281 276 279
f 226 277 280
f 277 232 281
f 280 281 233
f 277 281 280
f 216 278 294
f 278 233 296
f 294 296 238
f 278 296 294
f 233 279 299
f 279 219 297
f 299 297 239
f 279 297 299
f 238 301 295
f 301 239 298
f 295 298 221
f 301 298 295
f 233 299 296
f 299 239 301
f 296 301 238
f 299 301 296
f 216 294 312
f 294 238 315
f 312 315 242
f 294 315 312
f 238 295 330
f 295 221 327
f 330 327 245
f 295 327 330
f 242 332 313
f 332 245 328
f 313 328 222
f 332 328 313
f 238 330 315
f 330 245 332
f 315 332 242
f 330 332 315
f 217 316 273
f 316 243 319
f 273 319 231
f 316 319 273
f 243 317 326
f 317 222 322
f 326 322 244
f 317 322 326
f 231 324 274
f 324 244 321
f 274 321 218
f 324 321 274
f 243 326 319
f 326 244 324
f 319 324 231
f 326 324 319
f 215 259 354
f 259 227 356
f 354 356 251
f 259 356 354
f 227 260 360
f 260 217 358
f 360 358 252
f 260 358 360
f 251 362 355
f 362 252 359
f 355 359 224
f 362 359 355
f 227 360 356
f 360 252 362
f 356 362 251
f 360 362 356
f 219 276 339
f 276 232 341
f 339 341 248
f 276 341 339
f 232 275 338
f 275 215 336
f 338 336 247
f 275 336 338
f 248 343 340
f 343 247 337
f 340 337 223
f 343 337 340
f 232 338 341
f 338 247 343
f 341 343 248
f 338 343 341
f 221 298 303
f 298 239 307
f 303 307 240
f 298 307 303
f 239 297 300
f 297 219 289
f 300 289 236
f 297 289 300
f 240 305 302
f 305 236 290
f 302 290 220
f 305 290 302
f 239 300 307
f 300 236 305
f 307 305 240
f 300 305 307
f 222 328 309
f 328 245 331
f 309 331 241
f 328 331 309
f 245 327 329
f 327 221 292
f 329 292 237
f 327 292 329
f 241 311 308
f 311 237 291
f 308 291 214
f 311 291 308
f 245 329 331
f 329 237 311
f 331 311 241
f 329 311 331
